<?xml version="1.0" encoding="UTF-8"?>
<svg width="348px" height="109px" viewBox="0 0 348 109" version="1.1" xmlns="http://www.w3.org/2000/svg" xmlns:xlink="http://www.w3.org/1999/xlink">
    <!-- Generator: Sketch 56 (81588) - https://sketch.com -->
    <title>Group</title>
    <desc>Created with Sketch.</desc>
    <g id="Symbols" stroke="none" stroke-width="1" fill="none" fill-rule="evenodd">
        <g id="#header" transform="translate(-396.000000, 0.000000)">
            <g id="Group" transform="translate(396.000000, 0.000000)">
                <path d="M0,0 L348,0 L264.412112,101.158785 C260.308739,106.124723 254.203021,109 247.76111,109 L0,109 L0,0 Z" id="forma" fill="#03A9CB"></path>
                <g id="logo/nsx/completo" transform="translate(20.000000, 23.000000)" fill="#FFFFFF">
                    <path d="M-7.56728014e-13,64.9200103 L2.45833095,57.1557402 L3.5523369,57.1557402 L4.79535529,61.083944 C5.0836457,61.9940827 5.27309368,62.812084 5.38990746,63.6068636 L5.41686448,63.5948782 C5.65273845,62.558144 5.92904796,61.6135474 6.31243677,60.4045235 L7.34054776,57.1557402 L8.28479246,57.1557402 L5.82646151,64.9200103 L4.81332664,64.9200103 L3.59651646,60.9798211 C3.32919263,60.1161256 3.09182105,59.2292085 2.9667704,58.3887347 L2.92858128,58.399971 C2.67548477,59.3790256 2.40291929,60.312386 1.99481988,61.6023111 L0.944244693,64.9200103 L-7.56728014e-13,64.9200103 Z M10.0347527,57.1560398 L14.2265701,57.1560398 L13.9599951,57.9965136 L10.7708292,57.9965136 L9.99356834,60.4497683 L13.00976,60.4497683 L12.7476778,61.2797549 L9.73073734,61.2797549 L8.84489954,64.079087 L12.2070396,64.079087 L11.9404646,64.9195608 L7.57642173,64.9195608 L10.0347527,57.1560398 Z M17.4906166,64.9200103 L17.0435793,63.2038556 C16.8488896,62.5469078 16.7305783,62.1206782 16.630987,61.6712269 L16.607774,61.6712269 C16.2468494,62.1206782 15.8964081,62.5356715 15.2786429,63.2150919 L13.805741,64.9200103 L12.654077,64.9200103 L16.2700624,60.9918065 L15.2052599,57.1557402 L16.368156,57.1557402 L16.816691,58.9760177 C16.943988,59.4823994 17.0390864,59.8741711 17.1147159,60.2891644 L17.149161,60.2891644 C17.5138296,59.8284769 17.8223378,59.4711631 18.2671287,58.9760177 L19.9032704,57.1557402 L21.0541856,57.1557402 L17.4973559,60.9341269 L18.6535127,64.9200103 L17.4906166,64.9200103 Z M21.4807056,57.1560398 L27.2262961,57.1560398 L26.955977,58.008499 L24.5845076,58.008499 L22.3957469,64.9195608 L21.382612,64.9195608 L23.5713727,58.008499 L21.2103866,58.008499 L21.4807056,57.1560398 Z M28.3206015,63.6989262 C28.682275,63.9753387 29.265595,64.206057 29.9567432,64.206057 C30.9811102,64.206057 31.7516318,63.6644683 31.9994867,62.8809249 C32.2293702,62.1550612 31.9463215,61.740817 31.0260386,61.3370599 C29.9013316,60.8883578 29.3262483,60.2314099 29.6729456,59.1369961 C30.0563345,57.9272232 31.3420348,57.0290698 32.8508794,57.0290698 C33.6453629,57.0290698 34.162788,57.2133448 34.4458367,57.4088561 L33.9104403,58.2268574 C33.7015233,58.0890256 33.2559836,57.8583073 32.5536033,57.8583073 C31.4940425,57.8583073 30.8905046,58.4920336 30.722772,59.021637 C30.4928885,59.7475007 30.8523155,60.1048145 31.7913186,60.5198078 C32.9437314,61.0261895 33.4109865,61.6599157 33.0500619,62.8000237 C32.6704171,63.9985603 31.4558534,65.0352945 29.625022,65.0352945 C28.8762158,65.0352945 28.1281583,64.8165616 27.80093,64.5394 L28.3206015,63.6989262 Z M37.2093062,57.1557402 L35.7536269,61.7521281 C35.2032543,63.4915044 35.7408972,64.2286045 36.777245,64.2286045 C37.9289091,64.2286045 38.90685,63.4682828 39.4497346,61.7521281 L40.9054139,57.1557402 L41.9185488,57.1557402 L40.4853336,61.6832123 C39.7305369,64.0675511 38.164783,65.0466057 36.483713,65.0466057 C34.8947461,65.0466057 33.9856953,64.136467 34.7479801,61.7289065 L36.1961714,57.1557402 L37.2093062,57.1557402 Z M43.6282233,57.2478027 C44.1374115,57.1669015 44.792617,57.0979857 45.5983325,57.0979857 C46.5890032,57.0979857 47.2412135,57.328704 47.5706882,57.7429482 C47.8799452,58.1122473 47.9548258,58.6763086 47.7354256,59.3677144 C47.5130301,60.0703565 47.1303901,60.6231815 46.6114674,61.0261895 C45.9030967,61.5909999 44.9483687,61.8786487 43.9696789,61.8786487 C43.6701564,61.8786487 43.3975909,61.8674124 43.1856788,61.8097328 L42.2002497,64.9199354 L41.1990958,64.9199354 L43.6282233,57.2478027 Z M43.4447657,60.9917316 C43.6454458,61.0494111 43.9142673,61.0726328 44.2482348,61.0726328 C45.4568082,61.0726328 46.3800863,60.4846007 46.7192955,59.4134086 C47.0435286,58.3886598 46.4751847,57.8927653 45.3699466,57.8927653 C44.9326438,57.8927653 44.5874441,57.9272232 44.4002425,57.9736665 L43.4447657,60.9917316 Z M49.7538329,57.2478027 C50.2630211,57.1669015 50.9182266,57.0979857 51.7239421,57.0979857 C52.7146128,57.0979857 53.3668231,57.328704 53.6962978,57.7429482 C54.0055548,58.1122473 54.0804354,58.6763086 53.8610352,59.3677144 C53.6386397,60.0703565 53.2567486,60.6231815 52.737077,61.0261895 C52.0287063,61.5909999 51.0739783,61.8786487 50.0952885,61.8786487 C49.795766,61.8786487 49.5232005,61.8674124 49.3112884,61.8097328 L48.3266081,64.9199354 L47.3247054,64.9199354 L49.7538329,57.2478027 Z M49.5703753,60.9917316 C49.7710554,61.0494111 50.0398769,61.0726328 50.3738445,61.0726328 C51.5824178,61.0726328 52.5056959,60.4846007 52.8449051,59.4134086 C53.169887,58.3886598 52.6007943,57.8927653 51.4955562,57.8927653 C51.0582534,57.8927653 50.7130537,57.9272232 50.5258521,57.9736665 L49.5703753,60.9917316 Z M61.3376411,60.9571238 C60.49149,63.6298605 58.4187943,65.046381 56.4389505,65.046381 C54.388719,65.046381 53.4527112,63.4568218 54.1970246,61.1069409 C54.9772807,58.6417009 57.0200242,57.02892 59.0927199,57.02892 C61.2110928,57.02892 62.0669784,58.6529371 61.3376411,60.9571238 Z M55.2753056,61.0837193 C54.7496436,62.7429434 55.1779608,64.2283797 56.7549468,64.2283797 C58.3439136,64.2283797 59.7052434,62.765416 60.2638529,61.0035671 C60.7528234,59.4597021 60.4570449,57.8469212 58.7872069,57.8469212 C57.1293499,57.8469212 55.8151949,59.3788009 55.2753056,61.0837193 Z M63.8095254,57.2594885 C64.3494147,57.1561147 65.0929793,57.097686 65.7833787,57.097686 C66.8541717,57.097686 67.4831689,57.2939464 67.8283686,57.7314123 C68.1106686,58.0774897 68.1615874,58.6070931 67.9713906,59.2063614 C67.6471575,60.2311103 66.7867791,60.9112798 65.8822211,61.1876923 L65.870989,61.2221502 C66.4041391,61.4296469 66.586099,61.9824719 66.5149624,62.7884878 C66.4251057,63.8716653 66.3726892,64.6200016 66.4385842,64.9196358 L65.4022363,64.9196358 C65.345327,64.7009028 65.384265,64.0327186 65.4718753,63.0649003 C65.5804522,61.9937082 65.2936594,61.5907002 64.3950919,61.5562423 L63.4508472,61.5562423 L62.3852959,64.9196358 L61.3841419,64.9196358 L63.8095254,57.2594885 Z M63.691214,60.7959206 L64.7163298,60.7959206 C65.7871227,60.7959206 66.6527428,60.2086377 66.9335451,59.3217206 C67.251039,58.3194443 66.6639749,57.8812294 65.608158,57.8699931 C65.1244292,57.8699931 64.7642534,57.9164364 64.5890327,57.9621306 L63.691214,60.7959206 Z M69.253946,57.1560398 L74.9995364,57.1560398 L74.7299661,58.008499 L72.3577479,58.008499 L70.1689872,64.9195608 L69.1558523,64.9195608 L71.344613,58.008499 L68.9836269,58.008499 L69.253946,57.1560398 Z M78.3047672,57.1560398 L82.4958359,57.1560398 L82.2300096,57.9965136 L79.040095,57.9965136 L78.2628341,60.4497683 L81.2797745,60.4497683 L81.0169435,61.2797549 L78.0000031,61.2797549 L77.1141653,64.079087 L80.4763054,64.079087 L80.2097303,64.9195608 L75.8456875,64.9195608 L78.3047672,57.1560398 Z M85.7599572,64.9200103 L85.3129199,63.2038556 C85.1182303,62.5469078 84.9999189,62.1206782 84.9003276,61.6712269 L84.8771146,61.6712269 C84.51619,62.1206782 84.1657487,62.5356715 83.5479835,63.2150919 L82.0750816,64.9200103 L80.9234176,64.9200103 L84.539403,60.9918065 L83.4746005,57.1557402 L84.6374966,57.1557402 L85.0860316,58.9760177 C85.2133286,59.4823994 85.308427,59.8741711 85.3840565,60.2891644 L85.4185016,60.2891644 C85.7831702,59.8284769 86.0924272,59.4711631 86.5364693,58.9760177 L88.172611,57.1557402 L89.324275,57.1557402 L85.7666965,60.9341269 L86.9228533,64.9200103 L85.7599572,64.9200103 Z M90.5152514,57.2478027 C91.0244396,57.1669015 91.6796451,57.0979857 92.4853606,57.0979857 C93.4760313,57.0979857 94.1282416,57.328704 94.4577163,57.7429482 C94.7669733,58.1122473 94.8418539,58.6763086 94.6224537,59.3677144 C94.4000582,60.0703565 94.0181671,60.6231815 93.4984955,61.0261895 C92.7901248,61.5909999 91.8353968,61.8786487 90.856707,61.8786487 C90.5571845,61.8786487 90.284619,61.8674124 90.0727069,61.8097328 L89.0872778,64.9199354 L88.0861239,64.9199354 L90.5152514,57.2478027 Z M90.3317938,60.9917316 C90.5317251,61.0494111 90.8012954,61.0726328 91.135263,61.0726328 C92.3438363,61.0726328 93.2671144,60.4846007 93.6063236,59.4134086 C93.9305567,58.3886598 93.3622128,57.8927653 92.2569747,57.8927653 C91.8196719,57.8927653 91.4744722,57.9272232 91.2872706,57.9736665 L90.3317938,60.9917316 Z M96.6699147,57.1560398 L100.861732,57.1560398 L100.595906,57.9965136 L97.4059912,57.9965136 L96.6287303,60.4497683 L99.6449219,60.4497683 L99.3828397,61.2797549 L96.3658993,61.2797549 L95.4800615,64.079087 L98.8422016,64.079087 L98.5756266,64.9195608 L94.2115837,64.9195608 L96.6699147,57.1560398 Z M102.30236,57.2594885 C102.84225,57.1561147 103.585814,57.097686 104.276214,57.097686 C105.347007,57.097686 105.976004,57.2939464 106.321204,57.7314123 C106.603504,58.0774897 106.654422,58.6070931 106.464226,59.2063614 C106.139993,60.2311103 105.279614,60.9112798 104.375056,61.1876923 L104.363824,61.2221502 C104.896974,61.4296469 105.078934,61.9824719 105.007797,62.7884878 C104.917941,63.8716653 104.865524,64.6200016 104.931419,64.9196358 L103.895071,64.9196358 C103.838162,64.7009028 103.8771,64.0327186 103.96471,63.0649003 C104.073287,61.9937082 103.786494,61.5907002 102.887927,61.5562423 L101.943682,61.5562423 L100.878131,64.9196358 L99.876977,64.9196358 L102.30236,57.2594885 Z M102.184049,60.7959206 L103.209165,60.7959206 C104.279958,60.7959206 105.145578,60.2086377 105.42638,59.3217206 C105.743874,58.3194443 105.15681,57.8812294 104.100993,57.8699931 C103.618013,57.8699931 103.257088,57.9164364 103.081868,57.9621306 L102.184049,60.7959206 Z M108.529658,57.1560398 L109.531561,57.1560398 L107.07323,64.9195608 L106.071327,64.9195608 L108.529658,57.1560398 Z M111.28197,57.1560398 L115.473039,57.1560398 L115.207213,57.9965136 L112.017298,57.9965136 L111.240037,60.4497683 L114.256978,60.4497683 L113.994147,61.2797549 L110.977955,61.2797549 L110.091368,64.079087 L113.454257,64.079087 L113.186933,64.9195608 L108.823639,64.9195608 L111.28197,57.1560398 Z M114.488658,64.9200103 L116.946989,57.1557402 L118.040995,57.1557402 L119.284013,61.083944 C119.572304,61.9940827 119.761752,62.812084 119.878566,63.6068636 L119.905523,63.5948782 C120.141397,62.558144 120.417706,61.6135474 120.800346,60.4045235 L121.829206,57.1557402 L122.773451,57.1557402 L120.31512,64.9200103 L119.301985,64.9200103 L118.085175,60.9798211 C117.817102,60.1161256 117.580479,59.2292085 117.455429,58.3887347 L117.417239,58.399971 C117.164143,59.3790256 116.891577,60.312386 116.483478,61.6023111 L115.432903,64.9200103 L114.488658,64.9200103 Z M127.568656,64.6665198 C127.141837,64.8507948 126.346604,65.0350698 125.40236,65.0350698 C123.214348,65.0350698 122.005774,63.6530073 122.81149,61.106866 C123.581263,58.6760839 125.749806,57.0288451 128.156469,57.0288451 C129.123927,57.0288451 129.668309,57.2363417 129.889207,57.3749225 L129.388255,58.1921747 C129.067017,58.0078997 128.56981,57.870068 127.924339,57.870068 C126.10474,57.870068 124.527754,59.0333976 123.882283,61.0724081 C123.280243,62.9728377 123.987116,64.194596 125.875605,64.194596 C126.485882,64.194596 127.147827,64.0672515 127.613585,63.8717402 L127.568656,64.6665198 Z M131.201864,57.1560398 L135.393682,57.1560398 L135.127107,57.9965136 L131.937192,57.9965136 L131.16068,60.4497683 L134.17762,60.4497683 L133.914789,61.2797549 L130.897849,61.2797549 L130.012011,64.079087 L133.374151,64.079087 L133.107576,64.9195608 L128.743533,64.9195608 L131.201864,57.1560398 Z M228.923477,0.84946284 L193.552865,26.4112529 L205.985295,49.376713 L193.605281,49.376713 L184.651056,32.3926998 C184.651056,32.3926998 183.091292,10.5980602 162.457187,10.5980602 L147.08719,10.5980602 C146.689574,10.62278 146.270242,10.6377617 145.814219,10.6377617 L110.534212,10.6377617 C110.534212,10.6377617 105.566632,10.1987977 101.854799,18.4267517 L100.892583,20.4343005 L141.256236,20.4343005 L144.962078,20.4343005 C144.962078,20.4343005 150.312298,21.6096155 149.272955,26.710138 L143.493669,38.8393288 L142.923827,40.0273782 C138.226565,49.8231679 127.267037,49.8231679 127.267037,49.8231679 L75.858492,49.8231679 C75.858492,49.8231679 77.3598486,46.6627766 80.6051749,40.0266291 L125.953631,40.0266291 C134.495264,39.3756739 135.664899,32.1005565 136.409961,30.6166183 L136.593419,30.2308394 L96.1953213,30.2308394 L94.2349465,30.2308394 C92.9657199,30.2308394 91.4044588,30.2308394 89.3549761,28.6030768 C87.8543683,27.412031 87.9846606,25.1902437 88.1621277,24.0823464 L89.8978606,20.4350496 L89.8978606,20.4343005 L89.8986094,20.4343005 L94.6512827,10.4497413 C94.6587708,10.447494 94.6662589,10.4459959 94.6737469,10.4437486 C100.004499,1.4929272 108.311007,0.874182658 109.982342,0.841971986 L110.286357,0.841971986 L133.568242,0.841971986 L162.386799,0.841971986 C182.803751,0.841971986 188.711083,17.4671733 188.711083,17.4671733 C192.512773,14.7090409 202.128943,8.0998604 202.128943,8.0998604 L212.377105,0.749085397 L228.923477,0.84946284 Z M164.159973,17.7289786 L170.9801,21.1081029 C162.901229,24.0295359 164.159973,17.7289786 164.159973,17.7289786 Z M184.651056,32.3924751 L164.16147,47.0460836 C164.16147,47.0460836 164.158475,47.0333492 164.153982,47.0093785 L160.569447,49.8229432 L144.913405,49.8229432 L168.315099,32.21644 C177.122558,26.7660947 184.651056,32.3924751 184.651056,32.3924751 Z M78.853792,0.841971986 C78.853792,0.841971986 84.8494837,6.11403501 82.3956456,16.6394339 L66.6003263,49.8231679 L55.5262306,49.8231679 L54.2487671,49.8231679 L33.4663982,11.7995932 L15.07347,49.8231679 L4.16186519,49.8231679 L27.4774457,0.841971986 L32.4300503,0.841971986 C36.2706776,1.4412403 41.5594962,3.63755869 45.3551951,10.6377617 L60.7049747,38.9494443 L78.853792,0.841971986 Z" id="logo"></path>
                </g>
            </g>
        </g>
    </g>
</svg>